<svg width="15" height="14" viewBox="0 0 15 14" fill="none" xmlns="http://www.w3.org/2000/svg">
<path d="M13.9056 1.67604C13.1658 0.836572 12.1394 0.374268 11.0156 0.374268C9.43512 0.374268 8.43448 1.31821 7.87339 2.11011C7.72781 2.3156 7.60397 2.52164 7.5 2.71553C7.39603 2.52164 7.27222 2.3156 7.12661 2.11011C6.56552 1.31821 5.56488 0.374268 3.98438 0.374268C2.86061 0.374268 1.83425 0.836602 1.09438 1.67607C0.388682 2.47688 0 3.54938 0 4.696C0 5.94413 0.487295 7.10502 1.53355 8.34932C2.46861 9.46143 3.81384 10.6078 5.37158 11.9352C5.95204 12.4298 6.5523 12.9413 7.19136 13.5005L7.21055 13.5173C7.2934 13.5898 7.3967 13.6261 7.5 13.6261C7.6033 13.6261 7.7066 13.5898 7.78945 13.5173L7.80864 13.5005C8.4477 12.9413 9.04796 12.4298 9.62851 11.9351C11.1862 10.6078 12.5314 9.46146 13.4665 8.34932C14.5127 7.10499 15 5.94413 15 4.696C15 3.54938 14.6113 2.47688 13.9056 1.67604ZM9.05839 11.2662C8.558 11.6926 8.04302 12.1314 7.5 12.6035C6.95701 12.1315 6.442 11.6926 5.94152 11.2661C2.89292 8.6683 0.878906 6.95206 0.878906 4.696C0.878906 3.76348 1.1896 2.89734 1.75377 2.25718C2.32441 1.60975 3.11657 1.25317 3.98438 1.25317C5.18933 1.25317 5.96824 1.9955 6.40945 2.61823C6.80522 3.17675 7.01174 3.73978 7.08217 3.9559C7.14108 4.13681 7.30975 4.25924 7.5 4.25924C7.69025 4.25924 7.85892 4.13681 7.91783 3.9559C7.98826 3.73978 8.19478 3.17675 8.59055 2.6182C9.03176 1.9955 9.81067 1.25317 11.0156 1.25317C11.8834 1.25317 12.6756 1.60975 13.2462 2.25718C13.8104 2.89734 14.1211 3.76348 14.1211 4.696C14.1211 6.95206 12.1071 8.6683 9.05839 11.2662Z" fill="#2F76FF"/>
</svg>
