<svg width="20" height="20" viewBox="0 0 20 20" fill="none" xmlns="http://www.w3.org/2000/svg">
<path d="M19.9961 4.93262C19.9727 4.7175 19.8391 4.52711 19.6393 4.43387L10.2643 0.0588672C10.0967 -0.0192969 9.9032 -0.0192969 9.73566 0.0588672L0.360664 4.43387C0.160898 4.52711 0.0272266 4.71746 0.00382812 4.93262C0.00332031 4.93711 0 4.99695 0 5.00023V15.6252C0 15.8808 0.155586 16.1106 0.392891 16.2055L9.76789 19.9555C9.84238 19.9853 9.92121 20.0002 10 20.0002C10.0788 20.0002 10.1576 19.9854 10.2321 19.9555L19.6071 16.2055C19.8444 16.1106 20 15.8808 20 15.6252V5.00023C20 4.99695 19.9966 4.93707 19.9961 4.93262ZM10 1.31492L17.8025 4.95609L14.798 6.15789L6.84871 2.78555L10 1.31492ZM5.32461 3.4968L13.1506 6.81684L10 8.07707L2.1975 4.95609L5.32461 3.4968ZM1.25 5.92336L9.375 9.17336V18.4521L1.25 15.2021V5.92336ZM10.625 18.4521V9.17336L18.75 5.92336V15.2021L10.625 18.4521Z" fill="#0A0A0A"/>
</svg>
