<svg width="24" height="18" viewBox="0 0 24 18" fill="none" xmlns="http://www.w3.org/2000/svg">
<path d="M6.85715 8.81637C6.85715 8.086 7.44923 7.49392 8.1796 7.49392H22.6776C23.4079 7.49392 24 8.086 24 8.81637C24 9.54674 23.4079 10.1388 22.6776 10.1388H8.1796C7.44923 10.1388 6.85715 9.54674 6.85715 8.81637Z" fill="white"/>
<path d="M3.42857 8.81633C3.42857 9.79015 2.66106 10.5796 1.71428 10.5796C0.767511 10.5796 0 9.79015 0 8.81633C0 7.8425 0.767511 7.05306 1.71428 7.05306C2.66106 7.05306 3.42857 7.8425 3.42857 8.81633Z" fill="white"/>
<path d="M6.85715 15.8695C6.85715 15.1391 7.44923 14.547 8.1796 14.547H15.8204C16.5508 14.547 17.1429 15.1391 17.1429 15.8695C17.1429 16.5998 16.5508 17.1919 15.8204 17.1919H8.1796C7.44923 17.1919 6.85715 16.5998 6.85715 15.8695Z" fill="white"/>
<path d="M3.42857 15.8694C3.42857 16.8432 2.66106 17.6327 1.71428 17.6327C0.767511 17.6327 0 16.8432 0 15.8694C0 14.8956 0.767511 14.1061 1.71428 14.1061C2.66106 14.1061 3.42857 14.8956 3.42857 15.8694Z" fill="white"/>
<path d="M6.85715 1.76326C6.85715 1.0329 7.44923 0.440817 8.1796 0.440817H22.6776C23.4079 0.440817 24 1.0329 24 1.76326C24 2.49363 23.4079 3.08571 22.6776 3.08571H8.1796C7.44923 3.08571 6.85715 2.49363 6.85715 1.76326Z" fill="white"/>
<path d="M3.42857 1.76326C3.42857 2.73709 2.66106 3.52653 1.71428 3.52653C0.767511 3.52653 0 2.73709 0 1.76326C0 0.78944 0.767511 0 1.71428 0C2.66106 0 3.42857 0.78944 3.42857 1.76326Z" fill="white"/>
</svg>
