<svg width="15" height="16" viewBox="0 0 15 16" fill="none" xmlns="http://www.w3.org/2000/svg">
<path d="M14.4844 7.19654C14.8281 7.59025 15 8.05583 15 8.59339C15 9.08087 14.8217 9.50269 14.4661 9.85912C14.1099 10.2155 13.6881 10.3936 13.2006 10.3936H10.6039C10.6288 10.4811 10.6538 10.5561 10.6788 10.6186C10.7035 10.6811 10.7383 10.7499 10.7818 10.8249C10.8254 10.8999 10.8568 10.9562 10.8755 10.9936C10.9879 11.206 11.074 11.3811 11.1335 11.5185C11.1928 11.6562 11.2519 11.8436 11.3114 12.0811C11.3709 12.3185 11.4005 12.5561 11.4005 12.7936C11.4005 12.9435 11.3987 13.0655 11.3957 13.1592C11.3928 13.2529 11.3768 13.3936 11.349 13.5811C11.3207 13.7686 11.2831 13.9248 11.2363 14.0498C11.1894 14.1747 11.1143 14.3155 11.0114 14.4716C10.9082 14.628 10.7833 14.7544 10.6363 14.8514C10.4893 14.9482 10.3019 15.0295 10.0737 15.095C9.8454 15.1607 9.58774 15.1935 9.30006 15.1935C9.13759 15.1935 8.99708 15.1341 8.87822 15.0153C8.75324 14.8903 8.64682 14.7341 8.55941 14.5467C8.47187 14.3591 8.41089 14.1966 8.37648 14.0591C8.3421 13.9216 8.30299 13.7309 8.25942 13.4873C8.20297 13.2246 8.16098 13.0357 8.13267 12.9201C8.1046 12.8045 8.04976 12.6529 7.96859 12.4655C7.88725 12.2779 7.79049 12.128 7.67796 12.0154C7.47175 11.8092 7.15616 11.4342 6.73106 10.8905C6.42473 10.4905 6.10915 10.1124 5.78417 9.75615C5.45912 9.39981 5.22165 9.21547 5.07169 9.20296C4.91555 9.19048 4.78115 9.12642 4.66863 9.01074C4.5561 8.89512 4.49985 8.75915 4.49985 8.60294V2.59361C4.49985 2.4311 4.55918 2.29211 4.67795 2.17649C4.79665 2.06074 4.93729 1.99983 5.0998 1.99356C5.31852 1.98729 5.81227 1.84993 6.58107 1.58094C7.06225 1.4187 7.43875 1.29507 7.71063 1.21081C7.98245 1.12655 8.36239 1.03586 8.84952 0.938863C9.3371 0.84203 9.78702 0.793465 10.1994 0.793465H10.3588H11.0714H11.4088C12.2402 0.805943 12.8556 1.04978 13.2557 1.52466C13.6181 1.95596 13.7712 2.5216 13.7151 3.2216C13.9588 3.45283 14.1277 3.74645 14.2213 4.10279C14.3274 4.48382 14.3274 4.84948 14.2213 5.19942C14.5088 5.58068 14.6432 6.00879 14.6243 6.4838C14.6251 6.684 14.5783 6.92144 14.4844 7.19654Z" fill="#919191"/>
<path d="M3.30003 9.19336H0.600112C0.437508 9.19336 0.296871 9.13396 0.178136 9.01519C0.0594005 8.89649 0 8.75585 0 8.59334V2.59313C0 2.43085 0.0594005 2.29015 0.178169 2.17128C0.297002 2.05271 0.437639 1.99328 0.600145 1.99328H3.30003C3.4625 1.99328 3.60307 2.05271 3.72187 2.17128C3.84061 2.29015 3.89997 2.43082 3.89997 2.59313V8.59334C3.89997 8.75585 3.84057 8.89645 3.72187 9.01519C3.6031 9.13399 3.46253 9.19336 3.30003 9.19336Z" fill="#919191"/>
</svg>
