<svg width="14" height="14" viewBox="0 0 14 14" fill="none" xmlns="http://www.w3.org/2000/svg">
<path fill-rule="evenodd" clip-rule="evenodd" d="M7 14C10.866 14 14 10.866 14 7C14 3.13401 10.866 0 7 0C3.13401 0 0 3.13401 0 7C0 10.866 3.13401 14 7 14ZM7 13C10.3137 13 13 10.3137 13 7C13 3.68629 10.3137 1 7 1C3.68629 1 1 3.68629 1 7C1 10.3137 3.68629 13 7 13Z" fill="#CDCDCD"/>
<path d="M7.17 3C7.81 3 8.30667 3.17667 8.66 3.53C9.01333 3.87667 9.19 4.32667 9.19 4.88C9.19 5.43333 8.95 5.94333 8.47 6.41C8.45 6.43 8.39 6.48333 8.29 6.57C8.19667 6.65667 8.13667 6.71667 8.11 6.75C8.09 6.77667 8.04333 6.83 7.97 6.91C7.89667 6.98333 7.84667 7.04667 7.82 7.1C7.8 7.14667 7.77 7.21 7.73 7.29C7.69 7.36333 7.66333 7.44 7.65 7.52C7.63667 7.6 7.63 7.68667 7.63 7.78V7.95H6.42V7.66C6.42 7.53333 6.42667 7.41333 6.44 7.3C6.46 7.18667 6.49333 7.07667 6.54 6.97C6.59333 6.86333 6.63333 6.77667 6.66 6.71C6.69333 6.64333 6.75333 6.56 6.84 6.46C6.92667 6.35333 6.98333 6.28333 7.01 6.25C7.04333 6.21667 7.11333 6.14667 7.22 6.04C7.32667 5.93333 7.39 5.87 7.41 5.85C7.77 5.50333 7.95 5.19667 7.95 4.93C7.95 4.70333 7.88 4.52333 7.74 4.39C7.60667 4.25 7.40667 4.18 7.14 4.18C6.86 4.18 6.63333 4.26667 6.46 4.44C6.29333 4.61333 6.21 4.84 6.21 5.12H5C5 4.46 5.19 3.94333 5.57 3.57C5.95667 3.19 6.49 3 7.17 3ZM7.72 8.76V10.15H6.33V8.76H7.72Z" fill="#CDCDCD"/>
</svg>
