<svg width="31" height="30" viewBox="0 0 31 30" fill="none" xmlns="http://www.w3.org/2000/svg">
<rect x="0.824585" width="30" height="30" rx="15" fill="#EBF2FF"/>
<path d="M25.0983 7.571L27.098 10.929C27.2937 11.258 27.3658 11.6425 27.302 12.0172C27.2382 12.3919 27.0424 12.7336 26.7481 12.9842L26.0642 13.5653C25.6418 13.1851 25.1802 12.8453 24.6861 12.552L25.6296 11.7504L23.63 8.39243L20.7093 9.35021C20.0305 8.79553 19.258 8.35868 18.4258 8.05893L17.8242 5.14286H13.8249L13.2234 8.05893C12.3851 8.35444 11.6065 8.78978 10.9229 9.34529L8.0192 8.39243L6.01956 11.7504L8.32254 13.7128C8.1685 14.563 8.1705 15.4328 8.32847 16.2823L6.01956 18.2496L8.0192 21.6076L10.9399 20.6498C11.1534 20.8243 11.3762 20.9871 11.6072 21.1377C11.9876 23.3289 13.2419 25.2325 15.0107 26.5H13.8249C13.433 26.5002 13.0532 26.3686 12.7501 26.1278C12.447 25.8869 12.2393 25.5517 12.1625 25.1791L11.7363 23.1108C11.3514 22.9281 10.98 22.7197 10.6247 22.4873L8.56233 23.1642C8.19109 23.2864 7.78761 23.2799 7.42076 23.1458C7.05391 23.0118 6.74644 22.7584 6.55082 22.429L4.55118 19.071C4.35549 18.742 4.28341 18.3575 4.34721 17.9828C4.41101 17.6081 4.60675 17.2664 4.90112 17.0158L6.52795 15.6292C6.51269 15.4214 6.50422 15.2119 6.50422 15C6.50422 14.8246 6.5167 14.652 6.52922 14.4789L6.53642 14.3782L4.90027 12.9842C4.60617 12.7334 4.41077 12.3916 4.34728 12.0169C4.28379 11.6423 4.35614 11.2578 4.55203 10.929L6.55167 7.571C6.74735 7.24211 7.0546 6.98917 7.42107 6.85527C7.78754 6.72137 8.19056 6.71478 8.56148 6.83664L10.612 7.50857C10.9715 7.27734 11.3472 7.07066 11.7363 6.89004L12.1625 4.82086C12.2393 4.44829 12.447 4.11306 12.7501 3.87222C13.0532 3.63139 13.433 3.49985 13.8249 3.5H17.8242C18.2161 3.49985 18.596 3.63139 18.8991 3.87222C19.2022 4.11306 19.4098 4.44829 19.4866 4.82086L19.9128 6.89004C20.2977 7.07266 20.6691 7.2807 21.0245 7.51268L23.0868 6.83664C23.458 6.71436 23.8614 6.72072 24.2282 6.85464C24.5951 6.98857 24.9026 7.24176 25.0983 7.571Z" fill="#2F76FF"/>
<path d="M19.258 11.3652C18.8233 10.9793 18.3204 10.6676 17.7701 10.4466C16.8412 10.0736 15.819 9.97596 14.8328 10.1661C13.8467 10.3563 12.9408 10.8257 12.2298 11.515C11.5188 12.2042 11.0347 13.0824 10.8385 14.0385C10.6423 14.9945 10.743 15.9855 11.1278 16.8861C11.2785 17.2388 11.4701 17.5714 11.6977 17.8782C11.8712 17.1301 12.1476 16.4197 12.5116 15.7617C12.4551 15.5123 12.4294 15.2566 12.4354 15C12.4252 14.5658 12.5059 14.1341 12.6726 13.731C12.8394 13.3279 13.0886 12.9617 13.4054 12.6546C13.7222 12.3475 14.0999 12.1059 14.5157 11.9443C14.9315 11.7826 15.3768 11.7044 15.8246 11.7143C16.2253 11.7054 16.6239 11.7671 17.0012 11.8959C17.7125 11.626 18.4696 11.4444 19.258 11.3652Z" fill="#2F76FF"/>
<path fill-rule="evenodd" clip-rule="evenodd" d="M20.3246 26.8999C24.1906 26.8999 27.3246 23.7659 27.3246 19.8999C27.3246 16.0339 24.1906 12.8999 20.3246 12.8999C16.4586 12.8999 13.3246 16.0339 13.3246 19.8999C13.3246 23.7659 16.4586 26.8999 20.3246 26.8999ZM14.7938 18.4182C14.6683 18.8892 14.6014 19.3841 14.6014 19.8947C14.6014 20.4052 14.6683 20.9001 14.7938 21.3711H16.989C16.9335 20.9024 16.9018 20.4094 16.9018 19.8947C16.9018 19.3799 16.9335 18.887 16.989 18.4182H14.7938ZM15.508 16.8036H17.2872C17.4751 16.0592 17.711 15.4065 17.9467 14.8604C17.9779 14.7882 18.0091 14.7177 18.0402 14.6491C16.998 15.1025 16.1172 15.8574 15.508 16.8036ZM20.1153 14.1805C20.0951 14.2127 20.0737 14.2474 20.0511 14.2846C19.884 14.5603 19.6571 14.9719 19.429 15.5003C19.2657 15.8787 19.1024 16.3154 18.9601 16.8036H21.6781C21.5358 16.3154 21.3725 15.8787 21.2092 15.5003C20.9811 14.9719 20.7541 14.5603 20.5871 14.2846C20.5645 14.2474 20.5431 14.2127 20.5229 14.1805C20.4552 14.1782 20.3873 14.177 20.3191 14.177C20.2509 14.177 20.1829 14.1782 20.1153 14.1805ZM22.598 14.6491C22.6291 14.7177 22.6603 14.7882 22.6915 14.8604C22.9272 15.4065 23.1631 16.0592 23.3509 16.8036H25.1301C24.5209 15.8574 23.6402 15.1025 22.598 14.6491ZM25.8444 18.4182H23.6492C23.7047 18.887 23.7364 19.3799 23.7364 19.8947C23.7364 20.4094 23.7047 20.9024 23.6492 21.3711H25.8444C25.9699 20.9001 26.0368 20.4052 26.0368 19.8947C26.0368 19.3841 25.9699 18.8892 25.8444 18.4182ZM25.1301 22.9857H23.3509C23.1631 23.7301 22.9272 24.3829 22.6915 24.9289C22.6603 25.0012 22.6291 25.0716 22.598 25.1402C23.6402 24.6868 24.5209 23.932 25.1301 22.9857ZM20.5229 25.6088C20.5431 25.5767 20.5645 25.5419 20.5871 25.5047C20.7541 25.2291 20.9811 24.8174 21.2092 24.289C21.3725 23.9106 21.5358 23.4739 21.6781 22.9857H18.9601C19.1024 23.4739 19.2657 23.9106 19.429 24.289C19.6571 24.8174 19.884 25.2291 20.0511 25.5047C20.0737 25.5419 20.0951 25.5767 20.1153 25.6088C20.1829 25.6112 20.2509 25.6124 20.3191 25.6124C20.3873 25.6124 20.4552 25.6112 20.5229 25.6088ZM18.0402 25.1402C18.0091 25.0716 17.9779 25.0012 17.9467 24.9289C17.711 24.3829 17.4751 23.7301 17.2872 22.9857H15.508C16.1172 23.932 16.998 24.6868 18.0402 25.1402ZM22.0217 21.3711C22.0849 20.9062 22.1218 20.4129 22.1218 19.8947C22.1218 19.3764 22.0849 18.8831 22.0217 18.4182H18.6165C18.5532 18.8831 18.5164 19.3764 18.5164 19.8947C18.5164 20.4129 18.5532 20.9062 18.6165 21.3711H22.0217Z" fill="#2F76FF"/>
</svg>
