<svg width="17" height="18" viewBox="0 0 17 18" fill="none" xmlns="http://www.w3.org/2000/svg">
<path d="M8.5 0.765625C3.9526 0.765625 0.265625 4.45393 0.265625 9C0.265625 13.5487 3.9526 17.2344 8.5 17.2344C13.0474 17.2344 16.7344 13.5487 16.7344 9C16.7344 4.45393 13.0474 0.765625 8.5 0.765625ZM8.5 4.41797C9.27018 4.41797 9.89453 5.04232 9.89453 5.8125C9.89453 6.58268 9.27018 7.20703 8.5 7.20703C7.72982 7.20703 7.10547 6.58268 7.10547 5.8125C7.10547 5.04232 7.72982 4.41797 8.5 4.41797ZM10.3594 12.8516C10.3594 13.0716 10.181 13.25 9.96094 13.25H7.03906C6.81903 13.25 6.64062 13.0716 6.64062 12.8516V12.0547C6.64062 11.8347 6.81903 11.6562 7.03906 11.6562H7.4375V9.53125H7.03906C6.81903 9.53125 6.64062 9.35285 6.64062 9.13281V8.33594C6.64062 8.1159 6.81903 7.9375 7.03906 7.9375H9.16406C9.3841 7.9375 9.5625 8.1159 9.5625 8.33594V11.6562H9.96094C10.181 11.6562 10.3594 11.8347 10.3594 12.0547V12.8516Z" fill="#CDCDCD"/>
</svg>
