<svg width="15" height="16" viewBox="0 0 15 16" fill="none" xmlns="http://www.w3.org/2000/svg">
<path d="M14.4844 8.7904C14.8281 8.39669 15 7.93111 15 7.39355C15 6.90606 14.8217 6.48425 14.4661 6.12782C14.1099 5.77141 13.6881 5.59331 13.2006 5.59331H10.6039C10.6288 5.50583 10.6538 5.43084 10.6788 5.36835C10.7035 5.30586 10.7383 5.23704 10.7818 5.16204C10.8254 5.08701 10.8568 5.03073 10.8755 4.99329C10.9879 4.78091 11.074 4.6058 11.1335 4.46841C11.1928 4.33076 11.2519 4.14333 11.3114 3.90583C11.3709 3.66846 11.4005 3.43085 11.4005 3.19335C11.4005 3.04342 11.3987 2.92143 11.3957 2.82775C11.3928 2.73401 11.3768 2.59334 11.349 2.40581C11.3207 2.21838 11.2831 2.06211 11.2363 1.93717C11.1894 1.8122 11.1143 1.67146 11.0114 1.51533C10.9082 1.3589 10.7833 1.23251 10.6363 1.13558C10.4893 1.03871 10.3019 0.957473 10.0737 0.8919C9.8454 0.82626 9.58774 0.793457 9.30006 0.793457C9.13759 0.793457 8.99708 0.852858 8.87822 0.971626C8.75324 1.0966 8.64682 1.25283 8.55941 1.44026C8.47187 1.62779 8.41089 1.7903 8.37648 1.92785C8.3421 2.06533 8.30299 2.25601 8.25942 2.49969C8.20297 2.76231 8.16098 2.95125 8.13267 3.06687C8.1046 3.18248 8.04976 3.33402 7.96859 3.52148C7.88725 3.70907 7.79049 3.85897 7.67796 3.97153C7.47175 4.17774 7.15616 4.55277 6.73106 5.09647C6.42473 5.49641 6.10915 5.87452 5.78417 6.23079C5.45912 6.58713 5.22165 6.77147 5.07169 6.78398C4.91555 6.79646 4.78115 6.86052 4.66863 6.9762C4.5561 7.09182 4.49985 7.22779 4.49985 7.38399V13.3933C4.49985 13.5558 4.55918 13.6948 4.67795 13.8104C4.79665 13.9262 4.93729 13.9871 5.0998 13.9934C5.31852 13.9997 5.81227 14.137 6.58107 14.406C7.06225 14.5682 7.43875 14.6919 7.71063 14.7761C7.98245 14.8604 8.36239 14.9511 8.84952 15.0481C9.3371 15.1449 9.78702 15.1935 10.1994 15.1935H10.3588H11.0714H11.4088C12.2402 15.181 12.8556 14.9372 13.2557 14.4623C13.6181 14.031 13.7712 13.4653 13.7151 12.7653C13.9588 12.5341 14.1277 12.2405 14.2213 11.8842C14.3274 11.5031 14.3274 11.1375 14.2213 10.7875C14.5088 10.4063 14.6432 9.97815 14.6243 9.50314C14.6251 9.30294 14.5783 9.0655 14.4844 8.7904Z" fill="#2F76FF"/>
<path d="M3.30003 6.79358H0.600112C0.437508 6.79358 0.296871 6.85298 0.178136 6.97175C0.0594005 7.09045 0 7.23109 0 7.39359V13.3938C0 13.5561 0.0594005 13.6968 0.178169 13.8157C0.297002 13.9342 0.437639 13.9937 0.600145 13.9937H3.30003C3.4625 13.9937 3.60307 13.9342 3.72187 13.8157C3.84061 13.6968 3.89997 13.5561 3.89997 13.3938V7.39359C3.89997 7.23109 3.84057 7.09048 3.72187 6.97175C3.6031 6.85295 3.46253 6.79358 3.30003 6.79358Z" fill="#2F76FF"/>
</svg>
