<svg width="15" height="15" viewBox="0 0 15 15" fill="none" xmlns="http://www.w3.org/2000/svg">
<path d="M14.4844 8.57672C14.8281 8.18302 15 7.71743 15 7.17987C15 6.69239 14.8217 6.27058 14.4661 5.91414C14.1099 5.55774 13.6881 5.37963 13.2006 5.37963H10.6039C10.6288 5.29216 10.6538 5.21716 10.6788 5.15467C10.7035 5.09219 10.7383 5.02336 10.7818 4.94836C10.8254 4.87333 10.8568 4.81705 10.8755 4.77962C10.9879 4.56723 11.074 4.39212 11.1335 4.25473C11.1928 4.11708 11.2519 3.92966 11.3114 3.69215C11.3709 3.45478 11.4005 3.21718 11.4005 2.97967C11.4005 2.82974 11.3987 2.70776 11.3957 2.61408C11.3928 2.52033 11.3768 2.37966 11.349 2.19213C11.3207 2.0047 11.2831 1.84844 11.2363 1.7235C11.1894 1.59852 11.1143 1.45779 11.0114 1.30165C10.9082 1.14522 10.7833 1.01883 10.6363 0.9219C10.4893 0.825034 10.3019 0.743797 10.0737 0.678223C9.8454 0.612584 9.58774 0.579781 9.30006 0.579781C9.13759 0.579781 8.99708 0.639181 8.87822 0.757949C8.75324 0.882924 8.64682 1.03916 8.55941 1.22659C8.47187 1.41411 8.41089 1.57662 8.37648 1.71417C8.3421 1.85165 8.30299 2.04233 8.25942 2.28601C8.20297 2.54863 8.16098 2.73757 8.13267 2.85319C8.1046 2.96881 8.04976 3.12034 7.96859 3.30781C7.88725 3.4954 7.79049 3.64529 7.67796 3.75786C7.47175 3.96407 7.15616 4.33909 6.73106 4.88279C6.42473 5.28273 6.10915 5.66084 5.78417 6.01711C5.45912 6.37345 5.22165 6.55779 5.07169 6.5703C4.91555 6.58278 4.78115 6.64684 4.66863 6.76253C4.5561 6.87814 4.49985 7.01412 4.49985 7.17032V13.1797C4.49985 13.3422 4.55918 13.4812 4.67795 13.5968C4.79665 13.7125 4.93729 13.7734 5.0998 13.7797C5.31852 13.786 5.81227 13.9233 6.58107 14.1923C7.06225 14.3546 7.43875 14.4782 7.71063 14.5624C7.98245 14.6467 8.36239 14.7374 8.84952 14.8344C9.3371 14.9312 9.78702 14.9798 10.1994 14.9798H10.3588H11.0714H11.4088C12.2402 14.9673 12.8556 14.7235 13.2557 14.2486C13.6181 13.8173 13.7712 13.2517 13.7151 12.5517C13.9588 12.3204 14.1277 12.0268 14.2213 11.6705C14.3274 11.2894 14.3274 10.9238 14.2213 10.5738C14.5088 10.1926 14.6432 9.76447 14.6243 9.28946C14.6251 9.08926 14.5783 8.85182 14.4844 8.57672Z" fill="#919191"/>
<path d="M3.30003 6.57989H0.600112C0.437508 6.57989 0.296871 6.63929 0.178136 6.75806C0.0594005 6.87676 0 7.0174 0 7.1799V13.1801C0 13.3424 0.0594005 13.4831 0.178169 13.602C0.297002 13.7205 0.437639 13.78 0.600145 13.78H3.30003C3.4625 13.78 3.60307 13.7205 3.72187 13.602C3.84061 13.4831 3.89997 13.3424 3.89997 13.1801V7.1799C3.89997 7.0174 3.84057 6.87679 3.72187 6.75806C3.6031 6.63926 3.46253 6.57989 3.30003 6.57989Z" fill="#919191"/>
</svg>
