<svg width="13" height="13" viewBox="0 0 13 13" fill="none" xmlns="http://www.w3.org/2000/svg">
<path d="M12.0515 1.88578C11.4103 1.15823 10.5208 0.757568 9.54688 0.757568C8.1771 0.757568 7.30988 1.57565 6.8236 2.26196C6.69744 2.44005 6.59011 2.61863 6.5 2.78666C6.40989 2.61863 6.30259 2.44005 6.1764 2.26196C5.69012 1.57565 4.8229 0.757568 3.45312 0.757568C2.47919 0.757568 1.58968 1.15826 0.948467 1.8858C0.336857 2.57983 0 3.50933 0 4.50307C0 5.58478 0.422322 6.59089 1.32907 7.66928C2.13946 8.63311 3.30533 9.62659 4.65537 10.777C5.15844 11.2057 5.67866 11.649 6.23251 12.1336L6.24914 12.1482C6.32095 12.2111 6.41047 12.2425 6.5 12.2425C6.58953 12.2425 6.67905 12.211 6.75086 12.1482L6.76749 12.1336C7.32134 11.649 7.84156 11.2057 8.34471 10.777C9.69467 9.62662 10.8605 8.63313 11.6709 7.66928C12.5777 6.59086 13 5.58478 13 4.50307C13 3.50933 12.6631 2.57983 12.0515 1.88578ZM7.8506 10.1972C7.41693 10.5668 6.97062 10.9471 6.5 11.3562C6.02941 10.9472 5.58307 10.5668 5.14932 10.1972C2.5072 7.94573 0.761719 6.45832 0.761719 4.50307C0.761719 3.69488 1.03099 2.94423 1.51993 2.38942C2.01449 1.82832 2.70103 1.51929 3.45312 1.51929C4.49742 1.51929 5.17248 2.16263 5.55486 2.70234C5.89786 3.18638 6.07684 3.67434 6.13788 3.86165C6.18894 4.01844 6.33511 4.12454 6.5 4.12454C6.66489 4.12454 6.81106 4.01844 6.86212 3.86165C6.92316 3.67434 7.10214 3.18638 7.44514 2.70231C7.82752 2.16263 8.50258 1.51929 9.54688 1.51929C10.299 1.51929 10.9855 1.82832 11.48 2.38942C11.969 2.94423 12.2383 3.69488 12.2383 4.50307C12.2383 6.45832 10.4928 7.94573 7.8506 10.1972Z" fill="#0A0A0A"/>
</svg>
