<svg width="31" height="32" viewBox="0 0 31 32" fill="none" xmlns="http://www.w3.org/2000/svg">
<path d="M28.6852 12.8137H18.9298V3.05829C18.9298 1.86122 17.959 0.890419 16.7619 0.890419H14.5941C13.397 0.890419 12.4262 1.86122 12.4262 3.05829V12.8137H2.6708C1.47373 12.8137 0.50293 13.7845 0.50293 14.9816V17.1494C0.50293 18.3465 1.47373 19.3173 2.6708 19.3173H12.4262V29.0727C12.4262 30.2698 13.397 31.2406 14.5941 31.2406H16.7619C17.959 31.2406 18.9298 30.2698 18.9298 29.0727V19.3173H28.6852C29.8823 19.3173 30.8531 18.3465 30.8531 17.1494V14.9816C30.8531 13.7845 29.8823 12.8137 28.6852 12.8137Z" fill="#919191"/>
</svg>
