<svg width="21" height="20" viewBox="0 0 21 20" fill="none" xmlns="http://www.w3.org/2000/svg">
<path d="M10.8246 20C8.45681 20 6.16029 19.1577 4.35806 17.6281C3.9349 17.2692 3.53794 16.8713 3.17833 16.4455C1.66041 14.6462 0.824585 12.3573 0.824585 10C0.824585 7.32887 1.86474 4.81766 3.75349 2.92891C5.64224 1.04016 8.15345 0 10.8246 0C13.4957 0 16.0069 1.04016 17.8957 2.92891C19.7844 4.81766 20.8246 7.32887 20.8246 10C20.8246 12.3573 19.9888 14.6463 18.471 16.4452C18.1112 16.8713 17.7143 17.2692 17.291 17.6282C15.4889 19.1577 13.1924 20 10.8246 20ZM10.8246 1.25C5.99982 1.25 2.07458 5.17523 2.07458 10C2.07458 12.0627 2.8058 14.0654 4.13353 15.6392C4.44837 16.012 4.79607 16.3605 5.16677 16.675C6.74349 18.0131 8.75275 18.75 10.8246 18.75C12.8964 18.75 14.9057 18.0131 16.4823 16.675C16.8531 16.3605 17.2008 16.0119 17.5158 15.6389C18.8434 14.0654 19.5746 12.0627 19.5746 10C19.5746 5.17523 15.6494 1.25 10.8246 1.25Z" fill="#2F76FF"/>
<path d="M10.8246 10C8.75681 10 7.07458 8.31777 7.07458 6.25C7.07458 4.18223 8.75681 2.5 10.8246 2.5C12.8924 2.5 14.5746 4.18223 14.5746 6.25C14.5746 8.31777 12.8924 10 10.8246 10ZM10.8246 3.75C9.44607 3.75 8.32458 4.87148 8.32458 6.25C8.32458 7.62852 9.44607 8.75 10.8246 8.75C12.2031 8.75 13.3246 7.62852 13.3246 6.25C13.3246 4.87148 12.2031 3.75 10.8246 3.75Z" fill="#2F76FF"/>
<path d="M16.8872 17.7767C16.8368 17.7767 16.7856 17.7706 16.7345 17.7578C16.3997 17.6737 16.1965 17.3342 16.2805 16.9994C16.3927 16.5524 16.4496 16.09 16.4496 15.625C16.4496 12.567 13.9634 10.0443 10.9069 10.0004L10.8246 10L10.7423 10.0004C7.68576 10.0443 5.19958 12.567 5.19958 15.625C5.19958 16.09 5.2565 16.5524 5.36869 16.9994C5.45271 17.3342 5.24943 17.6737 4.91466 17.7578C4.5799 17.8418 4.24033 17.6386 4.1563 17.3038C4.01912 16.7573 3.94958 16.1925 3.94958 15.625C3.94958 13.8055 4.65337 12.0905 5.9313 10.7957C7.20798 9.50219 8.91119 8.77586 10.7272 8.75047C10.7301 8.75043 10.733 8.75043 10.7359 8.75043L10.8246 8.75L10.9133 8.75039C10.9162 8.75039 10.9191 8.75039 10.922 8.75043C12.738 8.77578 14.4412 9.50215 15.7179 10.7957C16.9958 12.0905 17.6996 13.8055 17.6996 15.625C17.6996 16.1925 17.6301 16.7573 17.4929 17.3038C17.4217 17.5874 17.167 17.7767 16.8872 17.7767Z" fill="#2F76FF"/>
</svg>
